<?xml version="1.0" standalone="no"?>
<!DOCTYPE svg PUBLIC "-//W3C//DTD SVG 20010904//EN"
 "http://www.w3.org/TR/2001/REC-SVG-20010904/DTD/svg10.dtd">
<svg version="1.0" xmlns="http://www.w3.org/2000/svg"
 width="700.000000pt" height="700.000000pt" viewBox="0 0 700.000000 700.000000"
 preserveAspectRatio="xMidYMid meet">
<metadata>
Created by potrace 1.14, written by Peter Selinger 2001-2017
</metadata>
<g transform="translate(0.000000,700.000000) scale(0.100000,-0.100000)"
fill="#000000" stroke="none">
<path d="M0 3500 l0 -3500 1640 0 1640 0 0 33 c-1 40 -39 135 -77 190 -37 54
-122 120 -208 162 -161 78 -510 135 -1030 166 -221 14 -221 14 4 53 320 56
688 75 891 47 304 -43 528 -168 669 -374 44 -65 99 -185 107 -236 l7 -41 1678
0 1679 0 0 3500 0 3500 -1750 0 c-1699 0 -1750 -1 -1739 -18 17 -26 -20 -145
-74 -242 -57 -102 -195 -240 -300 -299 -164 -92 -328 -130 -598 -138 -239 -8
-563 24 -824 81 l-60 13 45 6 c25 3 97 9 160 12 308 15 685 64 857 110 163 43
286 118 359 218 46 61 84 164 84 223 l0 34 -1580 0 -1580 0 0 -3500z m1665
2470 c113 -11 184 -32 211 -61 16 -18 17 -26 6 -76 -39 -185 -207 -391 -401
-492 -288 -149 -745 -167 -1326 -54 l-140 27 110 8 c581 37 909 84 1079 155
133 55 236 145 289 252 27 55 32 77 35 157 4 79 7 94 21 94 9 0 61 -5 116 -10z
m3810 -149 c-13 -80 28 -213 92 -298 59 -77 192 -156 333 -196 166 -48 499
-92 895 -117 99 -7 181 -13 183 -15 5 -4 -263 -53 -388 -70 -181 -26 -569 -31
-709 -11 -344 51 -574 204 -709 472 -38 75 -62 163 -51 190 16 45 137 78 302
82 l59 2 -7 -39z m-3001 -358 c716 -401 1330 -887 1639 -1299 299 -398 414
-848 327 -1275 -37 -180 -125 -392 -175 -419 -83 -44 -281 49 -518 245 l-85
70 72 76 c135 142 196 286 204 479 12 306 -100 563 -415 956 -201 249 -369
431 -773 837 -212 213 -383 387 -381 387 1 0 49 -26 105 -57z m-1074 -915
c520 -274 896 -563 1093 -840 151 -212 224 -469 198 -698 -19 -170 -77 -331
-122 -343 -55 -15 -177 38 -311 133 l-88 62 42 47 c84 95 137 256 123 380 -13
121 -66 254 -146 373 -117 172 -468 529 -829 842 -167 146 -162 140 -125 126
17 -6 91 -43 165 -82z m3912 -525 c216 -133 399 -292 487 -422 59 -86 88 -155
108 -257 20 -104 10 -213 -28 -309 -22 -54 -27 -60 -56 -63 -37 -4 -96 24
-171 80 l-53 39 35 41 c79 92 89 239 23 370 -61 123 -228 312 -502 568 l-110
103 89 -48 c49 -26 129 -72 178 -102z m1068 -1267 c0 -3 -78 -63 -172 -134
-565 -422 -1087 -748 -1618 -1011 -535 -265 -955 -405 -1390 -463 -126 -16
-490 -16 -605 1 -416 60 -780 216 -1085 465 -146 119 -303 292 -335 370 -59
141 57 389 283 610 l61 59 113 -51 c737 -333 1627 -510 2268 -452 364 33 909
148 1545 325 229 64 760 226 865 264 58 21 70 24 70 17z m-710 -1711 c328 -44
569 -192 703 -432 37 -68 77 -178 77 -214 0 -49 -98 -86 -258 -96 l-99 -6 -5
89 c-11 243 -184 397 -523 470 -158 33 -379 61 -631 79 -121 9 -248 19 -284
22 -61 6 -63 7 -30 14 84 20 336 60 455 73 173 18 463 19 595 1z"/>
</g>
</svg>
