<?xml version="1.0" standalone="no"?>
<!DOCTYPE svg PUBLIC "-//W3C//DTD SVG 20010904//EN"
 "http://www.w3.org/TR/2001/REC-SVG-20010904/DTD/svg10.dtd">
<svg version="1.0" xmlns="http://www.w3.org/2000/svg"
 width="700.000000pt" height="700.000000pt" viewBox="0 0 700.000000 700.000000"
 preserveAspectRatio="xMidYMid meet">
<metadata>
Created by potrace 1.14, written by Peter Selinger 2001-2017
</metadata>
<g transform="translate(0.000000,700.000000) scale(0.100000,-0.100000)"
fill="#000000" stroke="none">
<path d="M3160 6978 c-4 -201 -172 -380 -421 -447 -107 -29 -250 -56 -344 -66
-16 -2 -50 -6 -75 -10 -82 -11 -114 -14 -190 -20 -41 -4 -93 -8 -115 -10 -54
-5 -248 -17 -307 -19 -42 -2 -78 -12 -46 -13 7 0 51 -8 98 -17 47 -9 101 -19
120 -22 19 -3 58 -9 85 -14 180 -32 549 -51 680 -35 17 2 58 6 93 9 155 16
347 86 467 171 151 107 279 293 310 453 12 59 2 62 -186 62 -168 0 -169 0
-169 -22z"/>
<path d="M1530 5911 c-1 -246 -172 -413 -500 -486 -122 -27 -344 -60 -475 -70
-44 -4 -96 -8 -115 -11 -19 -2 -75 -6 -125 -10 -49 -3 -112 -7 -140 -9 -27 -2
-77 -5 -110 -5 l-60 -2 80 -18 c44 -10 101 -21 127 -24 26 -4 53 -9 60 -11 20
-7 242 -34 343 -42 171 -13 412 -8 550 13 122 19 305 89 402 155 120 82 228
215 286 352 39 93 41 152 7 179 -23 17 -120 45 -160 46 -8 0 -50 3 -92 5 l-78
5 0 -67z"/>
<path d="M5347 5854 c-1 -1 -27 -4 -57 -7 -78 -9 -148 -35 -166 -63 -9 -13
-13 -27 -10 -32 3 -5 7 -21 10 -37 17 -90 92 -226 178 -320 158 -172 384 -270
670 -292 154 -11 407 -5 533 12 17 3 53 7 80 10 87 10 235 34 244 39 3 2 26 7
51 10 25 3 59 10 75 15 34 10 41 9 -80 16 -115 6 -250 15 -300 20 -27 3 -77 7
-110 10 -68 7 -335 41 -380 50 -271 51 -400 109 -507 229 -70 78 -110 194
-103 298 l3 46 -64 -1 c-35 0 -65 -2 -67 -3z"/>
<path d="M2476 5407 c266 -257 575 -572 719 -732 44 -48 101 -111 126 -139
207 -229 415 -509 494 -667 48 -94 101 -256 116 -349 17 -113 6 -277 -25 -373
-42 -125 -99 -219 -189 -307 l-54 -53 31 -27 c17 -15 42 -35 55 -46 13 -10 38
-31 55 -45 17 -15 69 -52 116 -83 162 -109 273 -147 338 -117 64 30 161 277
196 501 19 119 14 338 -9 470 -30 167 -116 390 -207 541 -226 372 -631 753
-1218 1145 -226 152 -569 359 -635 384 -14 5 24 -37 91 -103z"/>
<path d="M1220 4627 c8 -8 69 -61 135 -118 65 -57 126 -111 135 -119 9 -8 63
-58 120 -110 232 -214 486 -483 567 -601 133 -193 179 -362 149 -544 -11 -60
-68 -174 -114 -226 l-42 -47 88 -62 c142 -101 263 -150 319 -129 22 8 47 56
76 144 58 180 55 413 -9 603 -41 120 -134 282 -221 384 -210 247 -584 517
-1055 762 -145 75 -176 89 -148 63z"/>
<path d="M5077 4138 c132 -114 373 -354 468 -469 41 -49 90 -122 111 -164 66
-139 57 -281 -24 -375 l-33 -39 53 -39 c71 -53 130 -82 168 -82 28 0 34 5 55
54 32 73 44 145 40 246 -12 266 -199 501 -596 749 -98 61 -261 151 -273 151
-4 0 10 -15 31 -32z"/>
<path d="M6325 2743 c-125 -47 -1012 -311 -1135 -338 -8 -2 -78 -19 -155 -39
-170 -42 -341 -84 -375 -90 -14 -3 -90 -18 -170 -34 -80 -17 -163 -33 -185
-36 -64 -10 -98 -16 -125 -21 -14 -3 -47 -7 -75 -11 -27 -3 -59 -8 -70 -10
-135 -26 -634 -25 -833 1 -20 2 -55 7 -77 9 -22 3 -71 10 -110 16 -38 6 -86
13 -105 16 -45 6 -324 69 -415 93 -38 11 -96 26 -127 35 -76 21 -397 128 -478
159 -102 40 -272 112 -318 136 -22 11 -46 21 -52 21 -16 0 -133 -124 -195
-206 -143 -189 -196 -350 -152 -457 35 -81 190 -253 339 -375 232 -189 528
-338 817 -412 71 -18 92 -22 166 -35 17 -3 41 -7 55 -10 111 -20 427 -27 580
-13 575 51 1315 341 2110 826 85 52 164 100 175 106 154 88 965 660 965 682 0
6 -12 4 -55 -13z"/>
<path d="M5357 1064 c-1 -1 -56 -5 -122 -8 -137 -7 -169 -11 -316 -32 -116
-16 -114 -16 -249 -43 -103 -21 -104 -22 -15 -26 80 -3 261 -15 305 -20 19 -2
70 -7 112 -10 42 -3 85 -7 95 -9 10 -2 47 -7 83 -10 36 -4 75 -8 85 -10 11 -2
40 -7 65 -10 356 -49 558 -153 647 -334 35 -71 38 -82 38 -165 l0 -90 105 7
c160 10 245 37 256 81 15 58 -69 245 -155 348 -144 169 -313 258 -596 311 -34
7 -333 24 -338 20z"/>
<path d="M2477 664 c-1 -1 -45 -4 -97 -8 -156 -9 -450 -53 -580 -85 -35 -9
-35 -9 15 -11 28 -1 68 -3 90 -5 22 -1 87 -5 145 -9 58 -4 125 -9 150 -11 25
-2 73 -7 107 -10 77 -7 129 -13 213 -25 36 -5 83 -12 105 -15 23 -3 52 -8 65
-11 14 -3 36 -7 50 -10 313 -63 493 -199 535 -404 l12 -55 168 -3 c93 -1 175
0 181 2 15 6 -3 73 -46 163 -131 281 -409 456 -775 489 -74 6 -332 13 -338 8z"/>
</g>
</svg>
